<mxfile host="app.diagrams.net" modified="2022-09-20T12:02:59.020Z" agent="5.0 (Windows NT 10.0; Win64; x64) AppleWebKit/537.36 (KHTML, like Gecko) Chrome/105.0.0.0 Safari/537.36 Edg/105.0.1343.42" etag="kfCw4lCaUzvBLevCUN4K" version="20.2.7" type="github">
  <diagram id="xbdcwXHPQUHZUbyYT70E" name="第 1 页">
    <mxGraphModel dx="1040" dy="571" grid="1" gridSize="10" guides="1" tooltips="1" connect="1" arrows="1" fold="1" page="1" pageScale="1" pageWidth="827" pageHeight="1169" math="0" shadow="0">
      <root>
        <mxCell id="0" />
        <mxCell id="1" parent="0" />
        <mxCell id="7TQnCxTbO33pNNRYlMxs-25" value="" style="rounded=1;whiteSpace=wrap;html=1;fontSize=18;fillColor=#F19C99;" parent="1" vertex="1">
          <mxGeometry x="1040" y="280" width="120" height="40" as="geometry" />
        </mxCell>
        <mxCell id="7TQnCxTbO33pNNRYlMxs-26" value="&lt;font style=&quot;font-size: 18px;&quot;&gt;End&lt;/font&gt;" style="text;html=1;strokeColor=none;fillColor=none;align=center;verticalAlign=middle;whiteSpace=wrap;rounded=0;" parent="1" vertex="1">
          <mxGeometry x="1090" y="285" width="60" height="30" as="geometry" />
        </mxCell>
        <mxCell id="7TQnCxTbO33pNNRYlMxs-23" value="Roll back" style="rounded=0;whiteSpace=wrap;html=1;fontSize=18;fillColor=#A9C4EB;" parent="1" vertex="1">
          <mxGeometry x="880" y="280" width="200" height="40" as="geometry" />
        </mxCell>
        <mxCell id="_aCOL6AofIa1MBWSSgmZ-6" value="" style="endArrow=classic;html=1;rounded=0;fontSize=18;" parent="1" edge="1">
          <mxGeometry width="50" height="50" relative="1" as="geometry">
            <mxPoint x="320" y="320" as="sourcePoint" />
            <mxPoint x="1200" y="320" as="targetPoint" />
          </mxGeometry>
        </mxCell>
        <mxCell id="_aCOL6AofIa1MBWSSgmZ-8" value="Downtime" style="rounded=0;whiteSpace=wrap;html=1;fontSize=18;fillColor=#9AC7BF;" parent="1" vertex="1">
          <mxGeometry x="600" y="280" width="120" height="40" as="geometry" />
        </mxCell>
        <mxCell id="_aCOL6AofIa1MBWSSgmZ-9" value="Post-copy" style="rounded=0;whiteSpace=wrap;html=1;fontSize=18;fillColor=#E6FFCC;" parent="1" vertex="1">
          <mxGeometry x="720" y="280" width="160" height="40" as="geometry" />
        </mxCell>
        <mxCell id="_aCOL6AofIa1MBWSSgmZ-12" value="Timeline" style="text;html=1;strokeColor=none;fillColor=none;align=center;verticalAlign=middle;whiteSpace=wrap;rounded=0;fontSize=18;" parent="1" vertex="1">
          <mxGeometry x="1100" y="320" width="100" height="30" as="geometry" />
        </mxCell>
        <mxCell id="_aCOL6AofIa1MBWSSgmZ-13" value="" style="fontColor=#0066CC;verticalAlign=top;verticalLabelPosition=bottom;labelPosition=center;align=center;html=1;outlineConnect=0;fillColor=#CCCCCC;strokeColor=#6881B3;gradientColor=none;gradientDirection=north;strokeWidth=2;shape=mxgraph.networks.pc;fontSize=18;" parent="1" vertex="1">
          <mxGeometry x="240" y="240" width="40" height="40" as="geometry" />
        </mxCell>
        <mxCell id="_aCOL6AofIa1MBWSSgmZ-16" value="VM on src server" style="text;html=1;strokeColor=none;fillColor=none;align=center;verticalAlign=middle;whiteSpace=wrap;rounded=0;fontSize=18;" parent="1" vertex="1">
          <mxGeometry x="180" y="200" width="160" height="40" as="geometry" />
        </mxCell>
        <mxCell id="XhVZfR67R8h_jW9CrwFd-3" value="" style="shape=flexArrow;endArrow=classic;html=1;rounded=0;fillColor=#CCFFCC;strokeColor=none;startArrow=none;width=20;endWidth=34.11764705882353;endSize=9.8;" parent="1" edge="1">
          <mxGeometry width="50" height="50" relative="1" as="geometry">
            <mxPoint x="400" y="199.41" as="sourcePoint" />
            <mxPoint x="720" y="199.41" as="targetPoint" />
            <Array as="points">
              <mxPoint x="700" y="199.41" />
            </Array>
          </mxGeometry>
        </mxCell>
        <mxCell id="XhVZfR67R8h_jW9CrwFd-5" value="&lt;font style=&quot;font-size: 24px;&quot;&gt;......&lt;/font&gt;" style="text;html=1;strokeColor=none;fillColor=none;align=center;verticalAlign=middle;whiteSpace=wrap;rounded=0;" parent="1" vertex="1">
          <mxGeometry x="520" y="280" width="80" height="40" as="geometry" />
        </mxCell>
        <mxCell id="XhVZfR67R8h_jW9CrwFd-6" value="" style="html=1;points=[];align=center;image;fontSize=12;image=img/lib/azure2/general/Globe_Error.svg;" parent="1" vertex="1">
          <mxGeometry x="720" y="180" width="40" height="40" as="geometry" />
        </mxCell>
        <mxCell id="XhVZfR67R8h_jW9CrwFd-7" value="" style="endArrow=classic;html=1;rounded=0;fontSize=24;fillColor=#CCFFCC;dashed=1;" parent="1" edge="1">
          <mxGeometry width="50" height="50" relative="1" as="geometry">
            <mxPoint x="740" y="220" as="sourcePoint" />
            <mxPoint x="740" y="320" as="targetPoint" />
          </mxGeometry>
        </mxCell>
        <mxCell id="XhVZfR67R8h_jW9CrwFd-19" value="Error" style="shape=callout;whiteSpace=wrap;html=1;perimeter=calloutPerimeter;fontSize=18;size=20;position=0.42;base=20;position2=0.33;rounded=1;shadow=1;" parent="1" vertex="1">
          <mxGeometry x="700" y="130" width="120" height="50" as="geometry" />
        </mxCell>
        <mxCell id="7TQnCxTbO33pNNRYlMxs-1" value="" style="curved=1;endArrow=classic;html=1;rounded=0;strokeWidth=4;" parent="1" edge="1">
          <mxGeometry width="50" height="50" relative="1" as="geometry">
            <mxPoint x="340" y="225" as="sourcePoint" />
            <mxPoint x="390" y="175" as="targetPoint" />
            <Array as="points">
              <mxPoint x="390" y="225" />
              <mxPoint x="340" y="175" />
            </Array>
          </mxGeometry>
        </mxCell>
        <mxCell id="7TQnCxTbO33pNNRYlMxs-3" value="" style="curved=1;endArrow=classic;html=1;rounded=0;strokeWidth=4;" parent="1" edge="1">
          <mxGeometry width="50" height="50" relative="1" as="geometry">
            <mxPoint x="620" y="100" as="sourcePoint" />
            <mxPoint x="670" y="50" as="targetPoint" />
            <Array as="points">
              <mxPoint x="670" y="100" />
              <mxPoint x="620" y="50" />
            </Array>
          </mxGeometry>
        </mxCell>
        <mxCell id="7TQnCxTbO33pNNRYlMxs-4" value="&lt;font style=&quot;font-size: 18px;&quot;&gt;migration thread&lt;/font&gt;" style="text;html=1;strokeColor=none;fillColor=none;align=center;verticalAlign=middle;whiteSpace=wrap;rounded=0;" parent="1" vertex="1">
          <mxGeometry x="300" y="120" width="120" height="40" as="geometry" />
        </mxCell>
        <mxCell id="7TQnCxTbO33pNNRYlMxs-9" value="Pre-copy" style="rounded=0;whiteSpace=wrap;html=1;fontSize=18;fillColor=#E6FFCC;" parent="1" vertex="1">
          <mxGeometry x="440" y="280" width="160" height="40" as="geometry" />
        </mxCell>
        <mxCell id="7TQnCxTbO33pNNRYlMxs-11" value="" style="endArrow=classic;html=1;rounded=0;fontSize=18;strokeWidth=1;dashed=1;" parent="1" edge="1">
          <mxGeometry width="50" height="50" relative="1" as="geometry">
            <mxPoint x="360" y="240" as="sourcePoint" />
            <mxPoint x="360" y="320" as="targetPoint" />
          </mxGeometry>
        </mxCell>
        <mxCell id="XhVZfR67R8h_jW9CrwFd-8" value="&lt;font style=&quot;font-size: 18px;&quot;&gt;Exec Flow&lt;/font&gt;" style="text;html=1;strokeColor=none;fillColor=none;align=center;verticalAlign=middle;whiteSpace=wrap;rounded=0;fontSize=24;" parent="1" vertex="1">
          <mxGeometry x="480" y="180" width="160" height="40" as="geometry" />
        </mxCell>
        <mxCell id="7TQnCxTbO33pNNRYlMxs-12" value="" style="endArrow=classic;html=1;rounded=0;fontSize=24;fillColor=#CCFFCC;dashed=1;" parent="1" edge="1">
          <mxGeometry width="50" height="50" relative="1" as="geometry">
            <mxPoint x="640" y="120" as="sourcePoint" />
            <mxPoint x="640" y="320" as="targetPoint" />
          </mxGeometry>
        </mxCell>
        <mxCell id="7TQnCxTbO33pNNRYlMxs-13" value="&lt;font style=&quot;font-size: 18px;&quot;&gt;backup thread&lt;/font&gt;" style="text;html=1;strokeColor=none;fillColor=none;align=center;verticalAlign=middle;whiteSpace=wrap;rounded=0;" parent="1" vertex="1">
          <mxGeometry x="500" y="60" width="120" height="40" as="geometry" />
        </mxCell>
        <mxCell id="7TQnCxTbO33pNNRYlMxs-14" value="" style="shape=flexArrow;endArrow=classic;html=1;rounded=0;fillColor=#CCFFCC;strokeColor=none;startArrow=none;width=20;endWidth=34.11764705882353;endSize=9.8;" parent="1" edge="1">
          <mxGeometry width="50" height="50" relative="1" as="geometry">
            <mxPoint x="680" y="79.5" as="sourcePoint" />
            <mxPoint x="880" y="80" as="targetPoint" />
            <Array as="points" />
          </mxGeometry>
        </mxCell>
        <mxCell id="7TQnCxTbO33pNNRYlMxs-16" value="" style="shape=flexArrow;endArrow=classic;html=1;rounded=0;fillColor=#CCCCCC;strokeColor=none;startArrow=none;width=20;endWidth=34.11764705882353;endSize=9.8;" parent="1" edge="1">
          <mxGeometry width="50" height="50" relative="1" as="geometry">
            <mxPoint x="760" y="199.5" as="sourcePoint" />
            <mxPoint x="880" y="200" as="targetPoint" />
            <Array as="points">
              <mxPoint x="850" y="200" />
            </Array>
          </mxGeometry>
        </mxCell>
        <mxCell id="7TQnCxTbO33pNNRYlMxs-17" value="&lt;font style=&quot;font-size: 18px;&quot;&gt;Backup Flow&lt;/font&gt;" style="text;html=1;strokeColor=none;fillColor=none;align=center;verticalAlign=middle;whiteSpace=wrap;rounded=0;fontSize=24;" parent="1" vertex="1">
          <mxGeometry x="700" y="60" width="160" height="40" as="geometry" />
        </mxCell>
        <mxCell id="7TQnCxTbO33pNNRYlMxs-19" value="&lt;font style=&quot;font-size: 18px;&quot;&gt;Waiting&lt;/font&gt;" style="text;html=1;strokeColor=none;fillColor=none;align=center;verticalAlign=middle;whiteSpace=wrap;rounded=0;fontSize=24;" parent="1" vertex="1">
          <mxGeometry x="760" y="180" width="90" height="40" as="geometry" />
        </mxCell>
        <mxCell id="7TQnCxTbO33pNNRYlMxs-20" value="" style="endArrow=classic;html=1;rounded=0;dashed=1;fontSize=18;strokeWidth=1;fillColor=#CCCCCC;entryX=1;entryY=1;entryDx=0;entryDy=0;" parent="1" target="_aCOL6AofIa1MBWSSgmZ-9" edge="1">
          <mxGeometry width="50" height="50" relative="1" as="geometry">
            <mxPoint x="880" y="40" as="sourcePoint" />
            <mxPoint x="930" y="30" as="targetPoint" />
          </mxGeometry>
        </mxCell>
        <mxCell id="7TQnCxTbO33pNNRYlMxs-21" value="" style="shape=flexArrow;endArrow=classic;html=1;rounded=0;fillColor=#CCFFCC;strokeColor=none;startArrow=none;width=20;endWidth=34.11764705882353;endSize=9.8;" parent="1" edge="1">
          <mxGeometry width="50" height="50" relative="1" as="geometry">
            <mxPoint x="880" y="199.41" as="sourcePoint" />
            <mxPoint x="1080" y="199.90999999999988" as="targetPoint" />
            <Array as="points" />
          </mxGeometry>
        </mxCell>
        <mxCell id="7TQnCxTbO33pNNRYlMxs-22" value="&lt;font style=&quot;font-size: 18px;&quot;&gt;Rolling Back&lt;/font&gt;" style="text;html=1;strokeColor=none;fillColor=none;align=center;verticalAlign=middle;whiteSpace=wrap;rounded=0;fontSize=24;" parent="1" vertex="1">
          <mxGeometry x="900" y="180" width="160" height="40" as="geometry" />
        </mxCell>
        <mxCell id="7TQnCxTbO33pNNRYlMxs-24" value="" style="endArrow=classic;html=1;rounded=0;dashed=1;fontSize=18;strokeWidth=1;fillColor=#CCCCCC;entryX=1;entryY=1;entryDx=0;entryDy=0;" parent="1" edge="1">
          <mxGeometry width="50" height="50" relative="1" as="geometry">
            <mxPoint x="1080" y="160" as="sourcePoint" />
            <mxPoint x="1080" y="320" as="targetPoint" />
          </mxGeometry>
        </mxCell>
        <mxCell id="7TQnCxTbO33pNNRYlMxs-27" value="&lt;font style=&quot;font-size: 24px;&quot;&gt;......&lt;/font&gt;" style="text;html=1;strokeColor=none;fillColor=none;align=center;verticalAlign=middle;whiteSpace=wrap;rounded=0;fontSize=18;" parent="1" vertex="1">
          <mxGeometry x="360" y="280" width="80" height="39" as="geometry" />
        </mxCell>
      </root>
    </mxGraphModel>
  </diagram>
</mxfile>
